Coordinates
version=1
nRows=14
nColumns=24
inDegrees=yes

Units are S.I. units (second, meters, Newtons, ...)
Angles are in degrees.

endheader
time	pelvis_tilt	pelvis_list	pelvis_rotation	pelvis_tx	pelvis_ty	pelvis_tz	hip_flexion_r	hip_adduction_r	hip_rotation_r	knee_angle_r	ankle_angle_r	subtalar_angle_r	mtp_angle_r	hip_flexion_l	hip_adduction_l	hip_rotation_l	knee_angle_l	ankle_angle_l	subtalar_angle_l	mtp_angle_l	lumbar_extension	lumbar_bending	lumbar_rotation
      1.65500000	     18.97029854	     -4.17651683	      3.93505294	     -0.01249726	      0.95149724	      0.27554068	    -28.45567748	      9.90875285	      1.79448341	     -5.34466904	     23.04267022	      2.75448166	     14.10366258	     10.41647282	     -5.19466725	     -8.30917621	    -35.18188967	     19.51064179	      3.76247966	     40.15039780	    -34.53049795	      8.61497741	      4.00109667
      1.66000000	     19.08146765	     -4.12081111	      3.71690385	     -0.00590033	      0.95087188	      0.27561643	    -29.14676485	      9.72585930	      1.92641852	     -5.18377839	     23.28958431	      3.06508840	     14.09406784	     10.00947037	     -5.00385143	     -8.83811272	    -32.72180267	     19.05335438	      4.29550962	     40.30477853	    -34.64463440	      8.43166681	      4.24734837
      1.66500000	     19.33838210	     -3.99320819	      3.52197405	      0.00086413	      0.95043696	      0.27551126	    -30.04439676	      9.46924321	      2.00016873	     -4.95599483	     23.51028224	      3.39617990	     14.08411755	      9.35908715	     -4.70670330	     -9.30630858	    -30.15612522	     18.53007200	      4.83970574	     40.45669480	    -34.90602084	      8.21453321	      4.40045125
      1.67000000	     19.49963721	     -3.89931581	      3.31852378	      0.00755655	      0.94977893	      0.27547242	    -30.84241728	      9.23774030	      2.05824732	     -4.69936040	     23.73347018	      3.78023936	     14.14680834	      8.83691503	     -4.44670449	     -9.78164088	    -27.64807701	     17.91367647	      5.47116163	     40.58471928	    -35.06175360	      8.01548881	      4.54105236
      1.67500000	     19.62974763	     -3.87024986	      3.14612200	      0.01411139	      0.94905906	      0.27544764	    -31.54313331	      9.09803927	      2.12372071	     -4.54153092	     23.91853757	      4.04272773	     14.17015985	      8.38326302	     -4.26394252	    -10.30727281	    -25.21682723	     17.17370081	      6.23751995	     40.73746197	    -35.19798408	      7.88631607	      4.80960807
      1.68000000	     19.71304474	     -3.86813583	      2.99578072	      0.02074017	      0.94825183	      0.27531806	    -32.15563927	      8.98897974	      2.14711695	     -4.45404430	     24.14327254	      4.54618795	     14.19175785	      7.96560462	     -4.07798899	    -10.77030489	    -22.80240726	     16.45925101	      6.95739979	     40.91459428	    -35.27861166	      7.79734925	      4.97945104
      1.68500000	     19.76142141	     -3.86544066	      2.82929308	      0.02751209	      0.94732753	      0.27525047	    -32.77553150	      8.86858644	      2.12989822	     -4.29671939	     24.36928930	      4.99627771	     14.24554164	      7.56628642	     -3.88824671	    -11.27329618	    -20.45031048	     15.86209432	      7.73467418	     41.05372668	    -35.31770530	      7.70127011	      5.17284826
      1.69000000	     19.84516017	     -3.88860956	      2.68951799	      0.03415762	      0.94643007	      0.27514034	    -33.37188942	      8.78774852	      2.07689918	     -4.24866740	     24.56572252	      5.31732051	     14.28733209	      7.14063447	     -3.70778163	    -11.68225062	    -18.15329334	     15.26983815	      8.38615856	     41.27830883	    -35.39432777	      7.63992705	      5.37857931
      1.69500000	     19.95489023	     -3.85297377	      2.58122849	      0.04089322	      0.94557912	      0.27499741	    -34.05433935	      8.66772988	      2.03055763	     -4.09178467	     24.65183753	      5.56311034	     14.40403994	      6.66752710	     -3.46357874	    -12.12553355	    -15.90558621	     14.70604000	      9.17159620	     41.60911502	    -35.48233964	      7.53462759	      5.52282508
      1.70000000	     19.98692449	     -3.93264276	      2.44262912	      0.04755087	      0.94457619	      0.27480255	    -34.61184831	      8.62888563	      2.04028384	     -3.99698307	     24.81059779	      5.91739711	     14.50711140	      6.29129231	     -3.31684911	    -12.47440849	    -13.76640254	     14.38283391	      9.84516601	     41.84007447	    -35.51914389	      7.53412747	      5.72515536
      1.70500000	     20.00057732	     -3.96980226	      2.20420630	      0.05426827	      0.94353589	      0.27479014	    -35.11372245	      8.48065379	      2.08043385	     -3.99733012	     25.01705561	      6.28796323	     14.65810987	      5.93960652	     -3.14754032	    -12.98203028	    -11.79703060	     14.11813291	     10.64978580	     41.94236543	    -35.53440364	      7.42703443	      6.05581295
      1.71000000	     20.03624532	     -4.01753124	      2.06410414	      0.06102304	      0.94250416	      0.27465360	    -35.63338872	      8.39728065	      2.04684530	     -3.99915871	     25.14558022	      6.62866429	     14.85458455	      5.59748629	     -2.97952789	    -13.45640401	     -9.97348646	     13.85812729	     11.50928569	     41.99026957	    -35.55228676	      7.38424820	      6.19918671
      1.71500000	     19.95927723	     -4.09530244	      2.02600123	      0.06790153	      0.94129638	      0.27436341	    -36.01491265	      8.39886116	      1.87873940	     -4.03558019	     25.27224606	      7.08296913	     15.08418641	      5.43921268	     -2.83269133	    -13.80472115	     -8.38346293	     13.82599347	     12.32090563	     42.04465685	    -35.43858092	      7.42997963	      6.31106909
      1.72000000	     19.86254660	     -4.13874571	      2.07565814	      0.07491987	      0.94002859	      0.27396312	    -36.36356754	      8.42685408	      1.59834586	     -4.10352540	     25.41824250	      7.52769775	     15.37478675	      5.35070306	     -2.64636459	    -14.06071591	     -7.01709156	     13.77628697	     13.14324649	     42.07978245	    -35.27325967	      7.49025033	      6.30762492
